<svg fill="none" height="12" viewBox="0 0 12 12" width="12" xmlns="http://www.w3.org/2000/svg"><path clip-rule="evenodd" d="m4.90625 1.5c0-.828427.67157-1.5 1.5-1.5h.09375c.82843 0 1.5.671573 1.5 1.5v2.5h1.5c.8284 0 1.5.67157 1.5 1.5v4c0 .8284-.6716 1.5-1.5 1.5h-8.5v-1h2v-4h-2v-1h3.40625c.27614 0 .5-.22386.5-.5zm-.90625 4.5v4h5.5c.27614 0 .5-.22386.5-.5v-.5h-1.5v-1h1.5v-1h-1.5v-1h1.5v-.5c0-.27614-.22386-.5-.5-.5h-2.5v-3.5c0-.27614-.22386-.5-.5-.5h-.09375c-.27614 0-.5.22386-.5.5v3c0 .82843-.67157 1.5-1.5 1.5z" fill="#000" fill-opacity=".8" fill-rule="evenodd"/></svg>