<svg fill="none" height="12" viewBox="0 0 12 12" width="12" xmlns="http://www.w3.org/2000/svg" xmlns:xlink="http://www.w3.org/1999/xlink"><clipPath id="a"><path d="m0 0h12v12h-12z"/></clipPath><g clip-path="url(#a)" fill="#000" fill-opacity=".8"><path d="m6.00005 7.5c.82843 0 1.5-.67157 1.5-1.5s-.67157-1.5-1.5-1.5-1.5.67157-1.5 1.5.67157 1.5 1.5 1.5z"/><path clip-rule="evenodd" d="m6.00005 2c2.64836 0 4.93455 1.63506 6.00005 4-1.0655 2.36495-3.35169 4-6.00005 4s-4.93454-1.63505-6.00005-4c1.06551-2.36495 3.35169-4 6.00005-4zm0 7c-2.06608 0-3.89964-1.18818-4.88452-3 .98488-1.81182 2.81844-3 4.88452-3s3.89963 1.18818 4.88455 3c-.98492 1.81182-2.81847 3-4.88455 3z" fill-rule="evenodd"/></g></svg>